# xmcd CD database file
#
# Track frame offsets:
#	150
#	15557
#	40597
#	52950
#	57893
#	69469
#	79412
#	92368
#	104025
#	127032
#	142318
#	156126
#	172100
#	197964
#	209765
#	219874
#	250654
#	263203
#	290578
#	301997
#
# Disc length: 4253 seconds
#
# Revision: 0
# Processed by: cddbd v1.5.1PL0 Copyright (c) Steve Scherf et al.
# Submitted via: CDex 1.51
#
DISCID=2d109b14
DTITLE=Divine - VV Summer Swap
DYEAR=2005
DGENRE=Jazz
TTITLE0=Prince Buster - A Trip To Mars
TTITLE1=Gregory James Edition - Changing Things
TTITLE2=John Cale and Terry Riley - The Soul Of Patrick Lee
TTITLE3=R.D. Burman - Chand Mera Dil
TTITLE4=Lesiman - Cristalli
TTITLE5=John Barry - This Is How We Dance
TTITLE6=Cos - Halucal
TTITLE7=Bit Of Honey - Live In Maid
TTITLE8=Oscar Brandenburg Orchestra - Scufflin'
TTITLE9=London Jazz Chamber Group - Mae West
TTITLE10=Christy - Deep Down
TTITLE11=Casey and The Pressure Group - Wailing Arab
TTITLE12=Spencer Mac - Commuter
TTITLE13=Honey and The Bees - Love Addict
TTITLE14=The Kinfolks - The Fly
TTITLE15=Spencer Davis Group - Alec In Transit Land
TTITLE16=The Graham Bond Organisation - Harmonic
TTITLE17=Gene Harris and The Three Sounds - Monk's Tune
TTITLE18=Soul Messengers - Do It ('Til You're Satisfied)
TTITLE19=Lennie Hibbert - Go For Yourself
EXTD=YEAR: 2005
EXTT0=
EXTT1=
EXTT2=
EXTT3=
EXTT4=
EXTT5=
EXTT6=
EXTT7=
EXTT8=
EXTT9=
EXTT10=
EXTT11=
EXTT12=
EXTT13=
EXTT14=
EXTT15=
EXTT16=
EXTT17=
EXTT18=
EXTT19=
PLAYORDER=
